# xmcd CD database file
#
# Track frame offsets:
#	150
#	20753
#	37269
#	57306
#	73270
#	86808
#	99361
#	116575
#	140399
#	154808
#	175722
#	191650
#
# Disc length: 2848 seconds
#
# Revision: 1
# Processed by: cddbd v1.5.1PL2 Copyright (c) Steve Scherf et al.
# Submitted via: CDex 1.51
#
DISCID=ab0b1e0c
DTITLE=Swingshift - Nightcap
DYEAR=2002
DGENRE=Jazz
TTITLE0=She Ain't Got A Man
TTITLE1=Nuts
TTITLE2=Hemingway
TTITLE3=Riversong
TTITLE4=Leaving You
TTITLE5=If You Were Mine
TTITLE6=Karl's Jam
TTITLE7=Jen's Blues
TTITLE8=The Night
TTITLE9=Can't Get You Out Of My Mind
TTITLE10=Da Funk
TTITLE11=Tapping Blues
EXTD=YEAR: 2002
EXTT0=
EXTT1=
EXTT2=
EXTT3=
EXTT4=
EXTT5=
EXTT6=
EXTT7=
EXTT8=
EXTT9=
EXTT10=
EXTT11=
PLAYORDER=
